<?xml version="1.0" encoding="UTF-8"?>
<svg id="Ebene_1" xmlns="http://www.w3.org/2000/svg" version="1.1" viewBox="0 0 566.9 283.5">
  <!-- Generator: Adobe Illustrator 29.5.1, SVG Export Plug-In . SVG Version: 2.1.0 Build 141)  -->
  <defs>
    <style>
      .st0 {
        fill: #1a1a1a;
      }
    </style>
  </defs>
  <path class="st0" d="M464,140.3l26.7,51.5h-16.8l-4.8-10.2h-30l-5,10.2h-15.4l27.3-51.5h17.9ZM464.6,172l-10.2-21.8-10.6,21.8s20.7,0,20.7,0Z"/>
  <rect class="st0" x="400" y="140.3" width="15" height="51.5"/>
  <path class="st0" d="M394.8,165.5c0,9.1-3.4,15.9-8.2,20-4.4,3.8-11.6,6.2-22,6.2h-27.5v-51.5h28.6c6.8,0,13.3.9,18.5,4.3,6.4,4.2,10.6,11.6,10.6,21h0ZM379.4,165.8c0-12.1-7.1-15.5-18.1-15.5h-9.3v31.5h6.8c12.1,0,20.6-1.8,20.6-16h0Z"/>
  <path class="st0" d="M307.9,140.3l26.7,51.5h-16.8l-4.8-10.2h-30l-5,10.2h-15.4l27.3-51.5h17.9ZM308.5,172l-10.2-21.8-10.5,21.8s20.7,0,20.7,0Z"/>
  <polygon class="st0" points="236.8 163.4 261 191.7 241.6 191.7 220.6 165.2 220.5 165.2 220.5 163 241.3 140.3 259.3 140.3 236.8 163.4"/>
  <polygon class="st0" points="220.5 165.2 220.5 191.7 205.5 191.7 205.5 140.3 220.5 140.3 220.5 163 220.5 165.2"/>
  <path class="st0" d="M170.8,109.1c6.7,6.7,8.6,17,6.5,27.9l-8.8-8.8c2.3-10.9.4-21.1-6.3-27.8l8.6,8.7h0Z"/>
  <path class="st0" d="M158.6,96.8c6.8,6.8,8.8,17.1,6.5,28.2l-8.3,1.6-5.8,1.1h-.1c.7-2.2,1.2-4.3,1.4-6.3h.1c.8-5.9-.4-11.1-4-14.7-6.6-6.6-19.2-5.2-31.3,2.4-3.8,2.3-7.5,5.2-11,8.8-14.7,14.7-19.6,33.6-11,42.2,4.7,4.7,12.4,5.3,20.8,2.6l-1.1,6.1-1.5,8.1c-11.1,2.4-21.4.5-28.3-6.4-13.6-13.6-8.1-41.1,12.3-61.5,20.4-20.4,47.9-25.9,61.5-12.3Z"/>
  <path class="st0" d="M157.6,134.4l3.2,3.2c-3.4,7.1-8.3,14.2-14.7,20.6s-13.2,11.1-20.1,14.5l-3.2-3.2-6.9-6.8c7-2.3,14.6-6.9,21.2-13.6s11.4-14.3,13.6-21.4h.1s6.6,6.6,6.6,6.6Z"/>
  <path class="st0" d="M137.3,105l9.3,9.3c-10.5,1.2-21.1,6.1-29.6,14.7-8.9,8.9-13.9,20-14.8,30.9l-9.3-9.3c1-10.9,6-22,14.9-30.9,8.5-8.6,19.1-13.5,29.5-14.7h0Z"/>
  <path class="st0" d="M116.6,180.3l8.9,8.9c-11.6,2.3-21.4.7-28.3-6.2l-9.1-9c6.9,6.9,17.3,8.8,28.5,6.4h0Z"/>
</svg>