<?xml version="1.0" encoding="UTF-8"?>
<svg id="Ebene_1" data-name="Ebene 1" xmlns="http://www.w3.org/2000/svg" width="200mm" height="100mm" viewBox="0 0 566.92913 283.46457">
  <defs>
    <style>
      .cls-1 {
        fill: #656565;
        fill-rule: evenodd;
      }
    </style>
  </defs>
  <path id="Pfad_20" data-name="Pfad 20" class="cls-1" d="M32.47931,80.42266l72.21145-4.49478-6.94098,25.40298-13.42583.10263,25.75251,67.43408-34.25026.80912-4.99601-18.37772-20.4853.24095-.91273,18.75948-34.57598-.00396,4.74614-13.24685-12.53838-.04314,8.02774-24.18385,11.98261.3525,11.23-27.69252-15.24536,4.72086,9.4204-29.77977ZM60.60514,114.30851l6.09815,17.96027h-11.85866l5.76051-17.96027ZM118.82607,76.90011l70.18964-2.24342c7.38586,1.59048,10.07069,6.5969,8.05451,15.01928l-3.85025,24.41737c-3.36671,7.11417-7.58731,10.81189-12.66183,11.09317l.03966,1.97471,13.73867,2.63113-5.0213,23.68807,8.996-3.82596-7.66383,26.3301-35.57003-2.4472,8.82495-30.64838-14.12588-.59147.1185,27.49074-31.39454.05751-.46653-66.2789-8.69209,5.40405,9.48435-32.07029v-.0005ZM149.59443,99.97688h12.49971v17.30633h-12.49921v-17.30633h-.0005ZM397.16868,75.77022l70.19013-2.24392c7.3852,1.59279,10.06953,6.60021,8.05301,15.02226l-3.85125,24.41637c-3.3667,7.11417-7.58697,10.81189-12.66083,11.09317l.03867,1.97471,13.73967,2.63113-5.02178,23.68807,8.99601-3.82497-7.66235,26.32911-35.56655-2.44669,8.82495-30.64839-14.12389-.59147.1185,27.49074-31.39553.05751-.47-66.2789-8.69356,5.40405,9.48481-32.07278ZM427.93704,98.84649h12.50069v17.30633h-12.50069v-17.30633ZM219.78457,76.25956l52.56203-.96182c9.45709-.25731,15.32519.98463,14.36436,10.4779l-4.82745,20.87251c-1.36785,8.78529-5.18988,14.15513-10.81998,16.11298l.32324,2.56419,9.32421-.00545c3.97172.57461,6.34058,3.55378,5.19184,11.83189l-4.90183,20.51604c-1.71839,8.80512-8.72579,11.09812-20.05944,11.99797l-49.48966-.14328.46704-65.95564-8.39957,1.53693,7.66582-24.50909c1.58652-3.15319,4.45296-4.59807,8.59938-4.33464v-.0005ZM240.61741,137.47551h13.14076v10.89733h-13.14076v-10.89733ZM240.61741,100.61842h13.14076v16.34551h-13.14076v-16.34551ZM293.24339,103.8792l5.27119-25.73962,33.94784.01686c-2.47248,20.25427-2.73029,40.07076-2.36738,59.76479l12.08622-4.50321,1.15319-54.84165,33.85415-.56073-4.45165,61.75585,12.55177-7.34653-6.84529,32.78818-27.32961,4.55774c-6.55973.8468-9.44271-2.58799-8.64648-9.65391l-2.14427-.81953-26.07427,10.27067c-10.62613.34705-15.21114-4.00594-15.66677-11.57358l.38176-54.26357-5.72234.14873.00194-.0005ZM502.10833,77.46332h43.42626c8.44963-.40059,13.90526,2.48735,12.79125,12.61473l-4.18838,17.12538-24.56068,2.33018,1.23946-7.59145-12.83241.1527.27815,42.83575,9.6762-1.17203,1.12193-8.04459-4.50321-.03371.46359-16.83336,10.1522-.31482,26.87147-1.23401c-4.00398,15.94888-6.73872,32.40445-5.95237,50.27251l-31.70488,7.49973.3069-10.89436-20.01877,5.59691c-9.32636,2.62897-15.30503-.96298-17.93598-10.77587l-.06494-61.43558c-.11505-12.92344,5.02926-19.6228,15.43276-20.09809h.00145ZM0,191.1719h566.92913v33.97312H0v-33.97312Z"/>
</svg>